<svg id="logo_anim" data-name="logo_anim" xmlns="http://www.w3.org/2000/svg" viewBox="0 0 212.6 212.6"><defs>

<style>
.green-o{fill:#26b5b4;}
.light-green-o{fill:#b2dcdd;}
.purple-j{fill:#673689;}
.light-purple-j{fill:#cdbfdd;}
</style>
</defs>

<path class="green-o" d="M116.59,86.42a46.85,46.85,0,0,0-26.2-26.2,52,52,0,0,0-19.88-3.71,54.47,54.47,0,0,0-15.23,2.08l5.36,16.8a30.14,30.14,0,0,1,9.87-1.64A28.63,28.63,0,0,1,86,78,29.63,29.63,0,0,1,96.61,89.54a35.3,35.3,0,0,1,3.9,16.76A35.08,35.08,0,0,1,96.61,123,29.77,29.77,0,0,1,86,134.6a28.4,28.4,0,0,1-15.45,4.25,28.37,28.37,0,0,1-15.45-4.25A29.87,29.87,0,0,1,44.4,123a35.08,35.08,0,0,1-3.89-16.72,38.66,38.66,0,0,1,1.08-9.23l-18.78-6a54.1,54.1,0,0,0-2.09,15.23,52.19,52.19,0,0,0,3.71,19.88,46.85,46.85,0,0,0,26.2,26.2,52.19,52.19,0,0,0,19.88,3.7,52.19,52.19,0,0,0,19.88-3.7,46.85,46.85,0,0,0,26.2-26.2,52.19,52.19,0,0,0,3.71-19.88A52.19,52.19,0,0,0,116.59,86.42Z" />


<path class="green-o" d="M41.59,97.07a32.24,32.24,0,0,1,2.81-7.53A29.73,29.73,0,0,1,55.06,78a26.85,26.85,0,0,1,5.58-2.57l-5.36-16.8a48.2,48.2,0,0,0-4.65,1.63,46.85,46.85,0,0,0-26.2,26.2,45.59,45.59,0,0,0-1.62,4.65Z" />

<path class="light-green-o" d="M41.59,97.07a32.24,32.24,0,0,1,2.81-7.53A29.73,29.73,0,0,1,55.06,78a26.85,26.85,0,0,1,5.58-2.57l-5.36-16.8a48.2,48.2,0,0,0-4.65,1.63,46.85,46.85,0,0,0-26.2,26.2,45.59,45.59,0,0,0-1.62,4.65Z">

		<animateTransform attributeName="transform" type="translate" from="-20" to="0" dur="1s" />

</path>
<path class="light-purple-j" d="M184.24,154.06q-18.31-.18-18.41-15.84h-.06c-.24,10.93-3.19,19-8.93,24.27-.25.22-.53.42-.79.63,5.94,5,14.92,7.5,27,7.54h8.41l.43-16.38Z">
		<animateTransform attributeName="transform" type="translate" from="-20" to="0" dur="1s" />


</path>
<path class="purple-j" d="M132.37,41.94V61h13.91v77q0,15.86-18.42,16l-7.64.21.43,16.39h8.4q18.9-.07,27.79-8.17t9-25.66V41.94Z"/>



</svg>